<svg width="501" height="501" viewBox="0 0 501 501" fill="none" xmlns="http://www.w3.org/2000/svg">
<g clip-path="url(#clip0_307_1320)">
<circle cx="250.5" cy="250.5" r="225.5" stroke="#CD0B0B" stroke-width="50"/>
<path d="M250.31 250.199C307.139 193.37 384.479 169.554 458.5 178.751" stroke="#CD0B0B" stroke-width="50"/>
<path d="M250.311 250.199C193.195 307.315 115.36 331.083 41 321.505" stroke="#CD0B0B" stroke-width="50"/>
<path d="M250.319 250.667C330.687 250.667 402.215 288.514 448.053 347.358" stroke="#CD0B0B" stroke-width="50"/>
<path d="M250.32 250.667C169.546 250.667 97.7013 212.437 51.8933 153.083" stroke="#CD0B0B" stroke-width="50"/>
<path d="M249.973 249.875C249.973 169.507 287.82 97.9784 346.664 52.1407" stroke="#CD0B0B" stroke-width="50"/>
<path d="M249.973 249.874C249.973 330.648 211.743 402.493 152.39 448.301" stroke="#CD0B0B" stroke-width="50"/>
<path d="M249.506 249.884C192.677 193.055 168.861 115.715 178.057 41.6938" stroke="#CD0B0B" stroke-width="50"/>
<path d="M249.505 249.883C306.621 306.999 330.39 384.834 320.812 459.194" stroke="#CD0B0B" stroke-width="50"/>
<path d="M250.31 250.199C307.139 193.37 384.479 169.554 458.5 178.751" stroke="#161616" stroke-width="20"/>
<path d="M250.311 250.199C193.195 307.315 115.36 331.083 41 321.505" stroke="#161616" stroke-width="20"/>
<path d="M250.319 250.667C330.687 250.667 402.215 288.514 448.053 347.358" stroke="#161616" stroke-width="20"/>
<path d="M250.32 250.667C169.546 250.667 97.7013 212.437 51.8933 153.083" stroke="#161616" stroke-width="20"/>
<path d="M249.973 249.875C249.973 169.507 287.82 97.9784 346.664 52.1407" stroke="#161616" stroke-width="20"/>
<path d="M249.973 249.874C249.973 330.648 211.743 402.493 152.39 448.301" stroke="#161616" stroke-width="20"/>
<path d="M249.506 249.884C192.677 193.055 168.861 115.715 178.057 41.6938" stroke="#161616" stroke-width="20"/>
<path d="M249.505 249.883C306.621 306.999 330.39 384.834 320.812 459.194" stroke="#161616" stroke-width="20"/>
<circle cx="250.5" cy="250.5" r="225.5" stroke="#161616" stroke-width="20"/>
<circle cx="250" cy="250" r="50" fill="#161616"/>
</g>
<defs>
<clipPath id="clip0_307_1320">
<rect width="501" height="501" fill="white"/>
</clipPath>
</defs>
</svg>
