<svg width="200" height="200" viewBox="0 0 200 200" fill="none" xmlns="http://www.w3.org/2000/svg">
<path d="M149.948 167H75.026C74.548 167 74.1368 166.662 74.0447 166.193L62.55 107.6C62.5217 107.455 62.4599 107.321 62.3842 107.195C61.0828 105.027 60.7026 97.8537 60.6734 94.2852C60.6725 94.1731 60.6532 94.0648 60.6157 93.9592L39.5224 34.4731C39.2785 33.7853 39.8108 33.0761 40.5357 33.1599C64.7913 35.9645 115.711 54.2785 138.589 63.2711C152.328 68.3026 155.657 81.8498 155.659 90.4979C155.659 92.8745 155.998 95.2498 156.781 97.4939C164.595 119.892 156.42 151.956 150.871 166.378C150.724 166.762 150.359 167 149.948 167Z" stroke="#F13C3C" stroke-width="5"/>
</svg>
