<svg width="127" height="140" viewBox="0 0 127 140" fill="none" xmlns="http://www.w3.org/2000/svg">
<path d="M113.948 137H39.026C38.548 137 38.1368 136.662 38.0447 136.193L26.55 77.5995C26.5217 77.4552 26.4599 77.3208 26.3842 77.1947C25.0828 75.0272 24.7026 67.8537 24.6734 64.2852C24.6725 64.1731 24.6532 64.0648 24.6157 63.9592L3.52236 4.47313C3.27845 3.78528 3.81075 3.07612 4.53574 3.15995C28.7913 5.96449 79.711 24.2785 102.589 33.2711C116.328 38.3026 119.657 51.8498 119.659 60.4979C119.659 62.8745 119.998 65.2498 120.781 67.4939C128.595 89.892 120.42 121.956 114.871 136.378C114.724 136.762 114.359 137 113.948 137Z" stroke="#F13C3C" stroke-width="5"/>
</svg>
