<svg width="185" height="93" viewBox="0 0 185 93" fill="none" xmlns="http://www.w3.org/2000/svg">
<path d="M64.7409 43.3513C58.2121 43.148 57.1755 36.2486 57.7909 30.0568C58.1176 26.7693 55.9634 23.5349 52.6791 23.1772C49.9511 22.88 47.414 24.6962 47.1792 27.4303C46.3049 37.6129 48.7099 52.1768 63.5901 53.9163C78.6763 55.6799 84.4137 41.5167 85.8771 31.2691C86.2328 28.7784 84.3402 26.6259 81.8391 26.3534C79.0734 26.0522 76.6435 28.1607 76.0509 30.8788C74.7662 36.7722 71.5288 43.5627 64.7409 43.3513Z" fill="#F13C3C"/>
<path d="M87.6242 9.93253C122.186 13.011 145.681 26.045 160.976 40.9842C178.97 58.5588 161.33 82.0532 136.186 81.3836L134.883 81.3489C125.084 81.088 113.094 78.4801 103.555 80.7419C91.1843 83.6752 80.7614 87.9542 68.0476 87.9542H63.5178C33.3806 86.4335 12.4826 38.8774 5.80082 15.2895C1.44613 6.71835 15.9099 4.86357 23.6862 5.00757L87.6242 9.93253Z" stroke="#F13C3C" stroke-width="10"/>
<path d="M113.183 48.7325C107.358 48.4272 106.569 42.232 107.24 36.706C107.596 33.7795 105.735 30.8536 102.812 30.4718C100.383 30.1545 98.0844 31.7271 97.8222 34.1625C96.844 43.2482 98.7063 56.318 111.953 58.1545C125.382 60.0165 130.774 47.4582 132.276 38.3253C132.64 36.1096 130.993 34.1526 128.766 33.8617C126.305 33.5402 124.097 35.3746 123.517 37.7886C122.259 43.0343 119.239 49.0499 113.183 48.7325Z" fill="#F13C3C"/>
</svg>
