<svg width="200" height="200" viewBox="0 0 200 200" fill="none" xmlns="http://www.w3.org/2000/svg">
<g clip-path="url(#clip0_108_30)">
<path d="M80.7408 98.3513C74.212 98.1479 73.1755 91.2486 73.7909 85.0567C74.1176 81.7693 71.9634 78.5349 68.6791 78.1771C65.951 77.88 63.4139 79.6962 63.1792 82.4303C62.3049 92.6128 64.7098 107.177 79.59 108.916C94.6763 110.68 100.414 96.5167 101.877 86.2691C102.233 83.7784 100.34 81.6258 97.839 81.3534C95.0734 81.0521 92.6435 83.1606 92.0509 85.8788C90.7661 91.7721 87.5288 98.5626 80.7408 98.3513Z" fill="#F13C3C"/>
<path d="M103.624 64.9325C138.186 68.011 161.681 81.045 176.976 95.9842C194.97 113.559 177.33 137.053 152.186 136.384L150.883 136.349C141.084 136.088 129.094 133.48 119.555 135.742C107.184 138.675 96.7614 142.954 84.0476 142.954H79.5178C49.3806 141.433 28.4826 93.8774 21.8008 70.2895C17.4461 61.7183 31.9099 59.8636 39.6862 60.0076L103.624 64.9325Z" stroke="#F13C3C" stroke-width="10"/>
<path d="M129.183 103.732C123.358 103.427 122.569 97.232 123.24 91.7059C123.596 88.7795 121.735 85.8535 118.812 85.4717C116.383 85.1545 114.085 86.727 113.822 89.1625C112.844 98.2481 114.706 111.318 127.953 113.154C141.383 115.016 146.774 102.458 148.276 93.3253C148.641 91.1095 146.993 89.1525 144.766 88.8617C142.305 88.5402 140.097 90.3746 139.517 92.7885C138.259 98.0342 135.239 104.05 129.183 103.732Z" fill="#F13C3C"/>
</g>
<defs>
<clipPath id="clip0_108_30">
<rect width="200" height="200" fill="white"/>
</clipPath>
</defs>
</svg>
