<svg width="200" height="200" viewBox="0 0 200 200" fill="none" xmlns="http://www.w3.org/2000/svg">
<path d="M70.2199 69.0248C57.9166 72.3533 48.6891 67.6379 45.6133 64.8642L38.7234 61.4378C31.0462 59.2841 28.3066 65.5984 27.8965 69.0248C25.8296 73.626 31.0544 76.6526 33.9251 77.5908C36.8779 78.0803 37.6161 80.4869 37.6161 81.629C38.1083 87.4049 34.3763 90.97 32.4487 92.0305C30.6771 92.0305 29.1679 94.0701 28.6347 95.0898C22.6307 95.873 20.8836 100.311 20.7606 102.432C18.5952 104.194 18.8741 107.001 19.2842 108.184C21.0559 114.057 31.8336 118.463 37.001 119.931C52.7492 123.651 60.8694 119.85 62.961 117.484C65.7169 115.428 65.0115 112.874 64.3143 111.855L64.6834 107.327C65.963 106.152 65.8728 104.064 65.6677 103.166C65.5693 101.404 68.3334 102.432 69.7278 103.166L112.912 120.298C121.476 124.018 127.307 120.951 129.153 118.952C131.318 117.582 132.106 118.381 132.229 118.952C131.638 121.987 132.721 121.93 133.336 121.522C135.501 120.445 149.166 123.521 155.728 125.193C165.472 128.717 169.959 133.596 170.984 135.595C172.362 141.762 174.183 138.164 174.921 135.595C175.217 130.798 177.997 125.111 179.35 122.868C182.008 119.931 180.868 119.034 179.966 118.952C177.308 119.148 174.429 117.728 173.322 116.994C168.105 113.47 154.252 107.041 147.977 104.268C140.792 101.233 137.765 98.8425 137.15 98.0267C135.969 94.1109 126.651 91.2555 122.14 90.3174C104.423 87.0868 82.2772 76.7342 73.4188 71.9617C74.5015 69.4164 71.7374 68.9432 70.2199 69.0248Z" fill="#F13C3C"/>
</svg>
