<svg width="162" height="78" viewBox="0 0 162 78" fill="none" xmlns="http://www.w3.org/2000/svg">
<path d="M51.2199 8.02481C38.9166 11.3533 29.6891 6.63794 26.6133 3.86419L19.7234 0.437808C12.0462 -1.71592 9.30662 4.59842 8.89651 8.02481C6.82955 12.626 12.0544 15.6526 14.9251 16.5908C17.8779 17.0803 18.6161 19.4869 18.6161 20.629C19.1083 26.4049 15.3763 29.97 13.4487 31.0305C11.6771 31.0305 10.1679 33.0701 9.63471 34.0898C3.63069 34.873 1.88361 39.311 1.76057 41.4321C-0.404813 43.1942 -0.125938 46.0006 0.284173 47.1835C2.05585 53.0573 12.8336 57.4627 18.001 58.9311C33.7492 62.6512 41.8694 58.8495 43.961 56.4837C46.7169 54.4279 46.0115 51.8744 45.3143 50.8546L45.6834 46.3269C46.963 45.1522 46.8728 43.0637 46.6677 42.1663C46.5693 40.4042 49.3334 41.4321 50.7278 42.1663L93.9125 59.2982C102.476 63.0183 108.307 59.9509 110.153 57.9522C112.318 56.5816 113.106 57.3811 113.229 57.9522C112.638 60.987 113.721 60.9298 114.336 60.5219C116.501 59.4451 130.166 62.5207 136.728 64.1931C146.472 67.7174 150.959 72.5959 151.984 74.5946C153.362 80.7621 155.183 77.1644 155.921 74.5946C156.217 69.7977 158.997 64.1115 160.35 61.868C163.008 58.9311 161.868 58.0337 160.966 57.9522C158.308 58.1479 155.429 56.7284 154.322 55.9942C149.105 52.4699 135.252 46.0414 128.977 43.2676C121.792 40.2328 118.765 37.8425 118.15 37.0267C116.969 33.1109 107.651 30.2555 103.14 29.3174C85.4232 26.0868 63.2772 15.7342 54.4188 10.9617C55.5015 8.41639 52.7374 7.94323 51.2199 8.02481Z" fill="#F13C3C"/>
</svg>
