<svg width="200" height="200" viewBox="0 0 200 200" fill="none" xmlns="http://www.w3.org/2000/svg">
<path d="M125.75 175.688C120.797 189.108 115.608 176.164 113.632 168.015L105.536 125.469C106.34 118.527 99.0977 115.592 95.3758 114.992C95.7569 125.448 86.4328 140.763 81.7232 147.113C71.4361 153.674 75.1438 146.107 78.2836 141.503C85.565 134.518 88.3026 119.19 88.7612 112.399C90.4969 104.948 83.2049 104.038 79.3419 104.514C68.2505 106.165 62.1262 104.214 60.4505 103.033L55.3175 100.757L60.7348 98.27L61.215 90.2266L55 87.369L61.5088 85.3053L65.4247 86.2578C74.3571 90.6605 84.2809 88.0922 88.1262 86.2578C104.552 85.3264 110.951 91.2673 112.098 94.3541C114.68 101.678 117.583 103.615 118.712 103.668C128.491 105.954 126.209 112.17 123.845 114.992C114.955 117.109 116.719 126.775 118.712 131.343C126.586 153.949 126.685 170.326 125.75 175.688Z" fill="#F13C3C"/>
<path d="M86.0095 78.5319L79.3419 89.7503H85.4274L90.9308 80.4369C95.711 80.3664 108.182 74.6372 119.824 52.2849L126.862 39.3731L129.613 40.9607L133 35.5631L102.837 19L99.8738 24.3446L102.837 26.7259L94.635 39.8494C87.4806 48.5702 85.9037 69.2714 86.0095 78.5319Z" fill="#F13C3C"/>
</svg>
