<svg width="78" height="163" viewBox="0 0 78 163" fill="none" xmlns="http://www.w3.org/2000/svg">
<path d="M70.7503 156.688C65.7973 170.108 60.6079 157.164 58.6323 149.015L50.536 106.469C51.3403 99.5267 44.0977 96.5916 40.3758 95.9919C40.7569 106.448 31.4328 121.763 26.7232 128.113C16.4361 134.674 20.1438 127.107 23.2836 122.503C30.565 115.518 33.3026 100.19 33.7612 93.3989C35.4969 85.9482 28.2049 85.038 24.3419 85.5143C13.2505 87.1653 7.12619 85.2144 5.45047 84.0326L0.317503 81.7571L5.73481 79.27L6.21501 71.2266L0 68.3691L6.50882 66.3053L10.4247 67.2578C19.3571 71.6605 29.2809 69.0923 33.1262 67.2578C49.5517 66.3265 55.9512 72.2673 57.0977 75.3541C59.6801 82.6779 62.5834 84.6147 63.7123 84.6676C73.4914 86.9536 71.209 93.1696 68.8453 95.9919C59.9552 98.1086 61.7191 107.775 63.7123 112.343C71.5864 134.95 71.6852 151.326 70.7503 156.688Z" fill="#F13C3C"/>
<path d="M31.0094 59.5319L24.3418 70.7503H30.4273L35.9307 61.4369C40.7109 61.3664 53.1817 55.6372 64.8235 33.2849L71.8615 20.3731L74.6132 21.9607L77.9999 16.5631L47.837 0L44.8737 5.34464L47.837 7.72592L39.6349 20.8494C32.4805 29.5702 30.9035 50.2714 31.0094 59.5319Z" fill="#F13C3C"/>
</svg>
