<svg width="17" height="17" viewBox="0 0 17 17" fill="none" xmlns="http://www.w3.org/2000/svg">
<path d="M5.47245 7.63429C5.05823 7.63429 4.72245 7.97008 4.72245 8.38429C4.72245 8.7985 5.05823 9.13429 5.47245 9.13429V7.63429ZM10.6463 8.38429V7.63429V8.38429ZM9.44459 5.02612C9.14765 4.73733 8.67282 4.74394 8.38403 5.04088C8.09525 5.33782 8.10185 5.81265 8.3988 6.10144L9.44459 5.02612ZM9.93518 6.54944L9.41228 7.0871L9.93518 6.54944ZM9.93518 10.2191L9.41228 9.68148L9.93518 10.2191ZM8.3988 10.6671C8.10185 10.9559 8.09525 11.4308 8.38403 11.7277C8.67282 12.0246 9.14765 12.0313 9.44459 11.7425L8.3988 10.6671ZM11.2098 8.20754L11.9535 8.11093L11.9535 8.11093L11.2098 8.20754ZM11.2098 8.56104L11.9535 8.65765L11.9535 8.65765L11.2098 8.56104ZM11.2212 8.38429L11.9712 8.38429L11.2212 8.38429ZM14.7827 8.38429C14.7827 11.8511 11.9147 14.6856 8.34682 14.6856V16.1856C12.7163 16.1856 16.2827 12.7061 16.2827 8.38429H14.7827ZM8.34682 14.6856C4.77892 14.6856 1.91089 11.8511 1.91089 8.38429H0.410889C0.410889 12.7061 3.97736 16.1856 8.34682 16.1856V14.6856ZM1.91089 8.38429C1.91089 4.9175 4.77892 2.08301 8.34682 2.08301V0.583008C3.97736 0.583008 0.410889 4.06245 0.410889 8.38429H1.91089ZM8.34682 2.08301C11.9147 2.08301 14.7827 4.9175 14.7827 8.38429H16.2827C16.2827 4.06245 12.7163 0.583008 8.34682 0.583008V2.08301ZM5.47245 9.13429L10.6463 9.13429V7.63429L5.47245 7.63429V9.13429ZM8.3988 6.10144L9.41228 7.0871L10.4581 6.01178L9.44459 5.02612L8.3988 6.10144ZM9.41228 9.68148L8.3988 10.6671L9.44459 11.7425L10.4581 10.7568L9.41228 9.68148ZM9.41228 7.0871C9.82911 7.49248 10.0953 7.753 10.2718 7.96863C10.4391 8.17297 10.4605 8.2614 10.466 8.30415L11.9535 8.11093C11.8968 7.67465 11.6851 7.32704 11.4326 7.0186C11.1894 6.72145 10.8495 6.39244 10.4581 6.01178L9.41228 7.0871ZM10.4581 10.7568C10.8495 10.3761 11.1894 10.0471 11.4326 9.74998C11.6851 9.44154 11.8968 9.09394 11.9535 8.65765L10.466 8.46443C10.4605 8.50718 10.4391 8.59561 10.2718 8.79995C10.0953 9.01558 9.82911 9.2761 9.41228 9.68148L10.4581 10.7568ZM10.466 8.30415C10.4695 8.33078 10.4712 8.35754 10.4712 8.38429L11.9712 8.38429C11.9712 8.29297 11.9653 8.20166 11.9535 8.11093L10.466 8.30415ZM10.4712 8.38429C10.4712 8.41104 10.4695 8.4378 10.466 8.46443L11.9535 8.65765C11.9653 8.56692 11.9712 8.47561 11.9712 8.38429L10.4712 8.38429ZM10.6463 9.13429H11.2212V7.63429H10.6463V9.13429Z" fill="#F4F4F4"/>
</svg>
