<svg width="86" height="91" viewBox="0 0 86 91" fill="none" xmlns="http://www.w3.org/2000/svg">
<g clip-path="url(#clip0_264_1028)">
<path d="M57.0483 79.4508L55.5812 78.0915L55.5812 78.0915L57.0483 79.4508ZM29.4395 79.4508L27.9724 80.8101L29.4395 79.4508ZM43.2439 89.135L43.2439 87.135L43.2439 89.135ZM80.9575 37.0512C80.9575 42.4269 77.6665 49.4952 72.6398 57.0165C67.6794 64.4387 61.2815 71.9395 55.5812 78.0915L58.5153 80.8101C64.2812 74.5873 70.8379 66.9115 75.9655 59.2391C81.0269 51.6659 84.9575 43.7217 84.9575 37.0512H80.9575ZM30.9065 78.0915C25.2063 71.9395 18.8084 64.4387 13.8479 57.0165C8.82123 49.4952 5.53027 42.4269 5.53027 37.0512H1.53027C1.53027 43.7217 5.46086 51.6659 10.5223 59.2391C15.6499 66.9115 22.2066 74.5873 27.9724 80.8101L30.9065 78.0915ZM5.53027 37.0512C5.53027 18.3522 22.2351 2.88257 43.2439 2.88257V-1.11743C20.3862 -1.11743 1.53027 15.7993 1.53027 37.0512H5.53027ZM43.2439 2.88257C64.2526 2.88257 80.9575 18.3522 80.9575 37.0512H84.9575C84.9575 15.7993 66.1015 -1.11743 43.2439 -1.11743V2.88257ZM55.5812 78.0915C52.5441 81.3693 50.4303 83.641 48.4956 85.1284C46.6558 86.5428 45.1173 87.135 43.2439 87.135L43.2439 91.135C46.2018 91.135 48.5745 90.1132 50.9335 88.2995C53.1977 86.5589 55.5704 83.9885 58.5153 80.8101L55.5812 78.0915ZM27.9724 80.8101C30.9174 83.9885 33.2901 86.5589 35.5542 88.2995C37.9133 90.1132 40.2859 91.135 43.2439 91.135L43.2439 87.135C41.3705 87.135 39.832 86.5428 37.9922 85.1284C36.0574 83.641 33.9436 81.3693 30.9065 78.0915L27.9724 80.8101ZM26.3513 38.6952C26.3513 47.0606 34.2401 53.2994 43.2439 53.2994V49.2994C35.7977 49.2994 30.3513 44.2519 30.3513 38.6952H26.3513ZM43.2439 53.2994C52.2476 53.2994 60.1365 47.0606 60.1365 38.6952H56.1365C56.1365 44.2519 50.69 49.2994 43.2439 49.2994V53.2994ZM60.1365 38.6952C60.1365 30.3297 52.2476 24.091 43.2439 24.091V28.091C50.69 28.091 56.1365 33.1384 56.1365 38.6952H60.1365ZM43.2439 24.091C34.2401 24.091 26.3513 30.3297 26.3513 38.6952H30.3513C30.3513 33.1384 35.7977 28.091 43.2439 28.091V24.091Z" fill="white"/>
</g>
<defs>
<clipPath id="clip0_264_1028">
<rect width="86" height="91" fill="white"/>
</clipPath>
</defs>
</svg>
