<svg width="73" height="64" viewBox="0 0 73 64" fill="none" xmlns="http://www.w3.org/2000/svg">
<path d="M66.0441 12.463C67.5073 15.7372 68.1271 20.2003 69.1928 27.8729C70.8284 39.6496 71.6463 45.538 69.848 50.1112C68.2694 54.1261 65.3545 57.4738 61.595 59.5897C57.3126 62 51.3677 62 39.478 62H33.3873C21.4976 62 15.5527 62 11.2703 59.5897C7.51078 57.4738 4.59594 54.1261 3.01728 50.1112C1.21904 45.538 2.03687 39.6496 3.67252 27.873C4.67031 20.6888 5.27729 16.3186 6.55161 13.1035M66.0441 12.463C65.7584 11.8237 65.4406 11.2297 65.0809 10.666C63.1412 7.6253 60.3657 5.20861 57.0871 3.70562C53.3665 2 48.737 2 39.478 2H33.3873C24.1283 2 19.4989 2 15.7782 3.70562C12.4996 5.20861 9.72411 7.6253 7.78437 10.666C7.30749 11.4135 6.90403 12.2143 6.55161 13.1035M66.0441 12.463L65.7121 12.795L62.4941 16.013C49.9941 28.513 43.7441 34.763 35.9776 34.763C28.2111 34.763 21.9611 28.513 9.46113 16.013L6.55161 13.1035" stroke="white" stroke-width="4"/>
</svg>
