<svg width="70" height="70" viewBox="0 0 70 70" fill="none" xmlns="http://www.w3.org/2000/svg">
<path d="M7.8532 3.73202C8.11812 3.4671 8.25058 3.33464 8.36728 3.22741C11.2366 0.590864 15.647 0.590864 18.5164 3.22741C18.6331 3.33464 18.7655 3.4671 19.0304 3.73202L24.4987 9.20025C27.5064 12.208 28.3666 16.7501 26.6669 20.6493C24.9673 24.5485 25.8275 29.0906 28.8352 32.0983L37.8232 41.0863C40.8309 44.094 45.3731 44.9543 49.2723 43.2546C53.1714 41.555 57.7136 42.4152 60.7213 45.4229L66.1895 50.8911C66.4544 51.156 66.5869 51.2885 66.6941 51.4052C69.3307 54.2745 69.3307 58.6849 66.6941 61.5543C66.5869 61.6709 66.4544 61.8034 66.1895 62.0683L62.8657 65.3921C60.159 68.0988 56.257 69.2351 52.5203 68.4047C27.0593 62.7467 7.17481 42.8622 1.51682 17.4013C0.68643 13.6645 1.82269 9.76253 4.52942 7.05581L7.8532 3.73202Z" stroke="#F13C3C" stroke-width="1.5"/>
</svg>
