<svg width="71" height="62" viewBox="0 0 71 62" fill="none" xmlns="http://www.w3.org/2000/svg">
<path d="M65.2944 11.463C66.7575 14.7372 67.3774 19.2003 68.443 26.8729C70.0787 38.6496 70.8965 44.538 69.0983 49.1112C67.5196 53.1261 64.6048 56.4738 60.8453 58.5897C56.5629 61 50.618 61 38.7283 61H32.6375C20.7478 61 14.8029 61 10.5205 58.5897C6.76103 56.4738 3.84618 53.1261 2.26752 49.1112C0.469289 44.538 1.28711 38.6496 2.92276 26.873C3.92056 19.6888 4.52754 15.3186 5.80186 12.1035M65.2944 11.463C65.0087 10.8237 64.6908 10.2297 64.3312 9.66596C62.3914 6.6253 59.6159 4.20861 56.3373 2.70562C52.6167 1 47.9872 1 38.7282 1H32.6375C23.3786 1 18.7491 1 15.0285 2.70562C11.7499 4.20861 8.97435 6.6253 7.03462 9.66596C6.55774 10.4135 6.15428 11.2143 5.80186 12.1035M65.2944 11.463L64.9623 11.795L61.7444 15.013C49.2444 27.513 42.9944 33.763 35.2279 33.763C27.4614 33.763 21.2114 27.513 8.71137 15.013L5.80186 12.1035" stroke="#F13C3C" stroke-width="1.5"/>
</svg>
