<svg width="82" height="90" viewBox="0 0 82 90" fill="none" xmlns="http://www.w3.org/2000/svg">
<path d="M55.048 79.4506L54.5625 79.0007L54.5625 79.0007L55.048 79.4506ZM27.4392 79.4506L26.9537 79.9004L27.4392 79.4506ZM41.2436 89.1347L41.2436 88.4729L41.2436 89.1347ZM80.2953 37.0509C80.2953 42.8598 76.7904 50.2211 71.7521 57.7598C66.7357 65.2657 60.2847 72.825 54.5625 79.0007L55.5335 79.9004C61.2774 73.7013 67.781 66.084 72.8527 58.4954C77.9025 50.9395 81.6191 43.2883 81.6191 37.0509H80.2953ZM27.9247 79.0007C22.2025 72.825 15.7515 65.2657 10.7351 57.7598C5.69686 50.2211 2.19192 42.8598 2.19192 37.0509H0.868136C0.868136 43.2883 4.58475 50.9395 9.63453 58.4954C14.7062 66.084 21.2098 73.7013 26.9537 79.9004L27.9247 79.0007ZM2.19192 37.0509C2.19192 17.498 19.6164 1.54422 41.2436 1.54422V0.220431C19.0045 0.220431 0.868136 16.6531 0.868136 37.0509H2.19192ZM41.2436 1.54422C62.8709 1.54422 80.2953 17.498 80.2953 37.0509H81.6191C81.6191 16.6531 63.4828 0.220431 41.2436 0.220431V1.54422ZM54.5625 79.0007C51.5562 82.2452 49.3558 84.6168 47.3109 86.189C45.2974 87.7369 43.4798 88.4729 41.2436 88.4729L41.2436 89.7966C43.8387 89.7966 45.9324 88.9185 48.1177 87.2384C50.2717 85.5825 52.5578 83.112 55.5335 79.9004L54.5625 79.0007ZM26.9537 79.9004C29.9295 83.112 32.2156 85.5825 34.3695 87.2384C36.5549 88.9185 38.6485 89.7966 41.2436 89.7966L41.2436 88.4729C39.0074 88.4729 37.1899 87.7369 35.1764 86.189C33.1314 84.6168 30.931 82.2452 27.9247 79.0007L26.9537 79.9004ZM25.6891 38.6949C25.6891 46.1208 32.7609 51.961 41.2436 51.961V50.6372C33.2764 50.6372 27.0129 45.1913 27.0129 38.6949H25.6891ZM41.2436 51.961C49.7263 51.961 56.7981 46.1208 56.7981 38.6949H55.4743C55.4743 45.1913 49.2108 50.6372 41.2436 50.6372V51.961ZM56.7981 38.6949C56.7981 31.2691 49.7263 25.4288 41.2436 25.4288V26.7526C49.2108 26.7526 55.4743 32.1986 55.4743 38.6949H56.7981ZM41.2436 25.4288C32.7609 25.4288 25.6891 31.2691 25.6891 38.6949H27.0129C27.0129 32.1986 33.2764 26.7526 41.2436 26.7526V25.4288Z" fill="#F13C3C"/>
</svg>
